<svg width="38" height="29" viewBox="0 0 38 29" fill="none" xmlns="http://www.w3.org/2000/svg">
	<path
		d="M22 24V5.80416C22 0.751814 15.3613 -1.11256 12.731 3.20111L1.63599 21.397C-0.395649 24.7288 2.00253 29 5.90497 29H17C19.7614 29 22 26.7614 22 24Z"
		fill="black"
	/>
	<path
		d="M38 23C38 26.3137 35.3137 29 32 29C28.6863 29 26 26.3137 26 23C26 19.6863 28.6863 17 32 17C35.3137 17 38 19.6863 38 23Z"
		fill="black"
	/>
	<path
		d="M38 6.99999C38 10.3137 35.3137 13 32 13C28.6863 13 26 10.3137 26 6.99999C26 3.68629 28.6863 0.999994 32 0.999994C35.3137 0.999994 38 3.68629 38 6.99999Z"
		fill="black"
	/>
</svg>
