<svg width="38" height="29" viewBox="0 0 38 29" fill="none" xmlns="http://www.w3.org/2000/svg">
	<path
		d="M21.1029 23.2046V5.00875C21.1029 -0.0435963 14.4642 -1.90797 11.8339 2.4057L0.73885 20.6015C-1.29279 23.9334 1.10539 28.2046 5.00783 28.2046H16.1029C18.8643 28.2046 21.1029 25.966 21.1029 23.2046Z"
		fill="white"
	/>
	<path
		d="M37.1029 22.2046C37.1029 25.5183 34.4166 28.2046 31.1029 28.2046C27.7891 28.2046 25.1029 25.5183 25.1029 22.2046C25.1029 18.8909 27.7891 16.2046 31.1029 16.2046C34.4166 16.2046 37.1029 18.8909 37.1029 22.2046Z"
		fill="white"
	/>
	<path
		d="M37.1029 6.20458C37.1029 9.51829 34.4166 12.2046 31.1029 12.2046C27.7891 12.2046 25.1029 9.51829 25.1029 6.20458C25.1029 2.89088 27.7891 0.204584 31.1029 0.204584C34.4166 0.204584 37.1029 2.89088 37.1029 6.20458Z"
		fill="white"
	/>
</svg>
